<svg width="150" height="150" viewBox="0 0 189 188" fill="none" xmlns="http://www.w3.org/2000/svg">
<path d="M96.3828 94.0645C96.3828 86.2645 95.6739 78.5409 94.2965 71.3346C92.9191 64.1284 90.9002 57.5806 88.3551 52.0652C85.8101 46.5497 82.7886 42.1747 79.4633 39.1897C76.138 36.2048 72.5739 34.6685 68.9746 34.6685C65.3753 34.6685 61.8113 36.2048 58.486 39.1897C55.1606 42.1747 52.1392 46.5497 49.5941 52.0652C47.049 57.5806 45.0301 64.1284 43.6527 71.3346C42.2753 78.5409 41.5664 86.2645 41.5664 94.0645L47.048 94.0645C47.048 87.8245 47.6152 81.6456 48.7171 75.8806C49.819 70.1156 51.4341 64.8774 53.4702 60.465C55.5063 56.0527 57.9234 52.5526 60.5837 50.1647C63.2439 47.7767 66.0952 46.5477 68.9746 46.5477C71.8541 46.5477 74.7053 47.7767 77.3656 50.1647C80.0258 52.5526 82.443 56.0527 84.479 60.465C86.5151 64.8774 88.1302 70.1156 89.2321 75.8806C90.334 81.6456 90.9012 87.8245 90.9012 94.0645L96.3828 94.0645Z" fill="white"/>
<path d="M94.0061 94.0163C94.0061 101.823 94.7134 109.552 96.0876 116.764C97.4618 123.977 99.4759 130.53 102.015 136.049C104.554 141.569 107.569 145.948 110.886 148.935C114.204 151.923 117.76 153.46 121.351 153.46C124.942 153.46 128.497 151.923 131.815 148.935C135.133 145.948 138.147 141.569 140.686 136.049C143.225 130.53 145.24 123.977 146.614 116.764C147.988 109.552 148.695 101.823 148.695 94.0163L143.226 94.0163C143.226 100.261 142.661 106.445 141.561 112.215C140.462 117.984 138.85 123.227 136.819 127.643C134.788 132.059 132.376 135.562 129.722 137.951C127.068 140.341 124.223 141.571 121.351 141.571C118.478 141.571 115.633 140.341 112.979 137.951C110.325 135.562 107.914 132.059 105.882 127.643C103.851 123.227 102.24 117.984 101.14 112.215C100.041 106.445 99.475 100.261 99.475 94.0163L94.0061 94.0163Z" fill="white"/>
<ellipse rx="9.56457" ry="12.7184" transform="matrix(-2.52825e-08 1 1 2.52825e-08 94.9841 93.9691)" fill="white"/>
<ellipse rx="9.56457" ry="12.7184" transform="matrix(-2.52825e-08 1 1 2.52825e-08 41.5661 94.1603)" fill="#2603FF"/>
<ellipse rx="9.56457" ry="12.7184" transform="matrix(-2.52825e-08 1 1 2.52825e-08 148.402 93.9694)" fill="#FF265A"/>
<path d="M94.9377 95.4294C102.66 95.4294 110.307 94.7133 117.441 93.3221C124.576 91.9309 131.059 89.8917 136.519 87.321C141.98 84.7504 146.311 81.6985 149.266 78.3398C152.222 74.9811 153.743 71.3812 153.743 67.7457C153.743 64.1102 152.222 60.5104 149.266 57.1516C146.311 53.7929 141.98 50.741 136.519 48.1704C131.059 45.5997 124.576 43.5605 117.441 42.1693C110.307 40.7781 102.66 40.062 94.9377 40.062L94.9377 45.5988C101.116 45.5988 107.233 46.1716 112.941 47.2846C118.648 48.3976 123.834 50.0289 128.203 52.0854C132.571 54.142 136.036 56.5834 138.401 59.2704C140.765 61.9574 141.982 64.8373 141.982 67.7457C141.982 70.6541 140.765 73.534 138.401 76.221C136.036 78.908 132.571 81.3494 128.203 83.406C123.834 85.4625 118.648 87.0938 112.941 88.2068C107.233 89.3198 101.116 89.8927 94.9377 89.8927L94.9377 95.4294Z" fill="white"/>
<path d="M94.9837 93.0279C87.2551 93.0279 79.6022 93.7423 72.4619 95.1303C65.3216 96.5183 58.8338 98.5528 53.3688 101.117C47.9039 103.682 43.5688 106.727 40.6112 110.078C37.6536 113.429 36.1314 117.02 36.1314 120.647C36.1314 124.274 37.6536 127.866 40.6112 131.217C43.5689 134.568 47.9039 137.613 53.3688 140.177C58.8338 142.742 65.3216 144.776 72.4619 146.164C79.6022 147.552 87.2551 148.267 94.9837 148.267L94.9837 142.743C88.8008 142.743 82.6785 142.171 76.9662 141.061C71.254 139.951 66.0637 138.323 61.6918 136.271C57.3198 134.22 53.8518 131.784 51.4857 129.103C49.1196 126.422 47.9018 123.549 47.9018 120.647C47.9018 117.746 49.1196 114.873 51.4857 112.192C53.8518 109.511 57.3198 107.075 61.6918 105.023C66.0637 102.972 71.254 101.344 76.9662 100.234C82.6785 99.1233 88.8008 98.5518 94.9837 98.5518L94.9837 93.0279Z" fill="white"/>
<ellipse rx="13.8204" ry="16.0784" transform="matrix(-1 -2.52825e-08 -2.52825e-08 1 96.3769 94.0134)" fill="white"/>
<ellipse rx="9.4694" ry="12.8463" transform="matrix(-1 -2.52825e-08 -2.52825e-08 1 94.8412 40.0613)" fill="#2603FF"/>
<ellipse rx="9.4694" ry="12.8463" transform="matrix(-1 -2.52825e-08 -2.52825e-08 1 95.0306 147.97)" fill="#FF265A"/>
<path d="M94.0424 92.9758C88.527 98.4912 83.5668 104.454 79.4452 110.523C75.3236 116.593 72.1212 122.651 70.0208 128.35C67.9205 134.05 66.9633 139.28 67.204 143.742C67.4447 148.204 68.8785 151.811 71.4236 154.356C73.9687 156.901 77.5752 158.335 82.0372 158.575C86.4993 158.816 91.7294 157.859 97.429 155.758C103.129 153.658 109.186 150.456 115.256 146.334C121.325 142.212 127.288 137.252 132.803 131.737L128.927 127.861C124.515 132.273 119.745 136.241 114.889 139.538C110.034 142.836 105.188 145.398 100.628 147.078C96.0681 148.758 91.884 149.524 88.3144 149.331C84.7448 149.139 81.8595 147.992 79.8235 145.956C77.7874 143.92 76.6404 141.034 76.4478 137.465C76.2552 133.895 77.021 129.711 78.7012 125.151C80.3815 120.592 82.9434 115.746 86.2407 110.89C89.538 106.034 93.5061 101.264 97.9185 96.8519L94.0424 92.9758Z" fill="white"/>
<path d="M95.6906 94.691C101.21 89.1711 106.176 83.2052 110.304 77.1338C114.432 71.0624 117.642 65.0044 119.749 59.3058C121.857 53.6072 122.821 48.3796 122.588 43.9213C122.354 39.463 120.927 35.8615 118.388 33.3223C115.849 30.7831 112.247 29.356 107.789 29.1225C103.331 28.889 98.1032 29.8536 92.4046 31.9612C86.706 34.0689 80.648 37.2783 74.5766 41.4063C68.5052 45.5343 62.5393 50.5 57.0194 56.0199L60.8865 59.887C65.3024 55.4711 70.0752 51.4985 74.9323 48.1961C79.7894 44.8938 84.6358 42.3262 89.1947 40.6401C93.7536 38.9539 97.9357 38.1823 101.502 38.3691C105.069 38.5559 107.95 39.6976 109.981 41.7289C112.013 43.7603 113.155 46.6415 113.341 50.2081C113.528 53.7747 112.756 57.9569 111.07 62.5158C109.384 67.0746 106.817 71.921 103.514 76.7781C100.212 81.6352 96.2393 86.408 91.8234 90.8239L95.6906 94.691Z" fill="white"/>
<ellipse rx="9.56457" ry="12.7184" transform="matrix(0.707106 -0.707106 -0.707106 -0.707106 94.9652 94.0336)" fill="white"/>
<ellipse rx="9.56457" ry="12.7184" transform="matrix(0.707106 -0.707106 -0.707106 -0.707106 132.871 131.67)" fill="#2603FF"/>
<ellipse rx="9.56457" ry="12.7184" transform="matrix(0.707106 -0.707106 -0.707106 -0.707106 57.1918 56.2614)" fill="#FF265A"/>
<path d="M96.0302 93.0348C90.5697 87.5743 84.6563 82.6736 78.6277 78.6124C72.599 74.5513 66.5732 71.4093 60.8943 69.3659C55.2154 67.3224 49.9945 66.4175 45.5299 66.7029C41.0652 66.9882 37.4442 68.4581 34.8735 71.0288C32.3029 73.5995 30.8329 77.2205 30.5476 81.6852C30.2623 86.1498 31.1672 91.3706 33.2106 97.0496C35.2541 102.728 38.396 108.754 42.4572 114.783C46.5183 120.812 51.419 126.725 56.8796 132.185L60.7946 128.27C56.4262 123.902 52.5056 119.171 49.2567 114.348C46.0078 109.525 43.4942 104.705 41.8595 100.162C40.2247 95.6185 39.5008 91.4419 39.7291 87.8702C39.9573 84.2984 41.1333 81.4016 43.1898 79.3451C45.2464 77.2885 48.1432 76.1126 51.7149 75.8843C55.2866 75.656 59.4633 76.38 64.0064 78.0147C68.5496 79.6495 73.3702 82.1631 78.1931 85.412C83.016 88.6609 87.7467 92.5815 92.1152 96.9499L96.0302 93.0348Z" fill="white"/>
<path d="M94.3011 94.6993C99.7661 100.164 105.683 105.071 111.713 109.138C117.743 113.205 123.77 116.354 129.447 118.405C135.125 120.456 140.344 121.368 144.804 121.09C149.265 120.812 152.881 119.349 155.446 116.784C158.011 114.22 159.474 110.604 159.752 106.143C160.03 101.682 159.118 96.4636 157.067 90.7858C155.016 85.108 151.867 79.0818 147.8 73.0514C143.732 67.021 138.826 61.1044 133.361 55.6395L129.455 59.5455C133.827 63.9174 137.752 68.6507 141.006 73.475C144.26 78.2994 146.779 83.1203 148.42 87.6625C150.06 92.2048 150.79 96.3794 150.568 99.9481C150.345 103.517 149.175 106.41 147.123 108.461C145.071 110.513 142.178 111.684 138.61 111.906C135.041 112.129 130.866 111.399 126.324 109.758C121.782 108.117 116.961 105.598 112.137 102.344C107.312 99.0903 102.579 95.1653 98.2071 90.7933L94.3011 94.6993Z" fill="white"/>
<ellipse rx="13.8204" ry="16.0784" transform="matrix(0.707106 0.707106 0.707106 -0.707106 94.0108 93.0154)" fill="white"/>
<ellipse rx="9.4694" ry="12.8463" transform="matrix(0.707106 0.707106 0.707106 -0.707106 56.9475 132.252)" fill="#2603FF"/>
<ellipse rx="9.4694" ry="12.8463" transform="matrix(0.707106 0.707106 0.707106 -0.707106 133.117 55.8151)" fill="#FF265A"/>
</svg>
