<svg width="295" height="295" viewBox="0 0 295 295" fill="none" xmlns="http://www.w3.org/2000/svg">
<path d="M147.5 0C176.673 0 205.19 8.65072 229.447 24.8582C253.703 41.0657 272.608 64.1021 283.772 91.0542C294.936 118.006 297.857 147.664 292.166 176.276C286.474 204.888 272.426 231.17 251.798 251.798C231.17 272.426 204.888 286.474 176.276 292.166C147.664 297.857 118.006 294.936 91.0542 283.772C64.1021 272.608 41.0657 253.703 24.8582 229.447C8.65072 205.19 0 176.673 0 147.5C0 108.381 15.5401 70.8633 43.2017 43.2017C70.8633 15.5401 108.381 0 147.5 0V0ZM255.853 70.151C244.521 77.7466 232.43 84.1432 219.775 89.2375C225.238 105.694 228.386 122.831 229.126 140.154H280.427C279.042 114.961 270.52 90.6819 255.853 70.151V70.151ZM39.2055 70.151C24.5644 90.6972 16.0813 114.99 14.75 140.184H65.8735C66.6126 122.85 69.7599 105.704 75.225 89.2375C62.5792 84.1427 50.4979 77.7461 39.176 70.151H39.2055ZM255.853 224.849C270.531 204.324 279.055 180.041 280.427 154.845H229.185C228.625 172.196 225.647 189.383 220.335 205.91C232.792 210.991 244.694 217.337 255.853 224.849V224.849ZM14.75 154.786C16.1202 180.001 24.6439 204.303 39.3235 224.849C50.4833 217.337 62.3851 210.991 74.8415 205.91C69.4761 189.371 66.4476 172.163 65.844 154.786H14.75ZM140.302 191.956V154.816H80.476C79.65 163.046 85.1665 194.7 88.5 200.983C105.242 195.66 122.628 192.633 140.184 191.986L140.302 191.956ZM214.76 154.845H154.845V191.986C172.393 192.662 189.769 195.708 206.5 201.042C211.343 186.091 214.122 170.549 214.76 154.845V154.845ZM140.213 140.095V103.014C122.824 102.363 105.601 99.3862 89.0015 94.164C85.1075 102.512 79.3255 134.549 80.6235 140.243H140.213V140.095ZM206.175 94.0755C189.537 99.3046 172.274 102.281 154.845 102.925V140.184H214.701C213.964 124.499 211.096 108.987 206.175 94.0755V94.0755ZM93.4265 214.701C103.802 239.505 119.811 261.554 140.184 279.099V206.5C131.127 205.91 102.512 210.895 93.4265 214.701ZM154.816 279.158C175.225 261.561 191.254 239.452 201.632 214.583C186.449 209.848 170.708 207.131 154.816 206.5V279.158ZM93.9575 80.476C104.489 84.429 133.104 89.326 140.184 88.4115V17.346C120.166 34.5919 104.354 56.185 93.9575 80.476V80.476ZM201.131 80.476C190.717 56.1792 174.885 34.5855 154.845 17.346V88.5C170.552 87.8666 186.11 85.1992 201.131 80.5645V80.476ZM80.3285 75.697C84.8749 64.9348 90.4051 54.6152 96.8485 44.8695C103.292 35.1985 110.567 26.1076 118.59 17.7C91.3763 23.7213 66.7556 38.1737 48.2325 59C58.338 65.6385 69.0919 71.2329 80.3285 75.697V75.697ZM176.439 17.7C192.676 34.5245 205.676 54.1946 214.789 75.7265C226.036 71.213 236.791 65.5588 246.885 58.8525C228.305 38.0804 203.659 23.6828 176.439 17.7V17.7ZM178.445 276.798C204.866 270.613 228.735 256.428 246.797 236.177C236.899 229.582 226.364 223.998 215.35 219.509C206.545 240.635 194.048 260.024 178.445 276.769V276.798ZM48.2325 236.177C66.3093 256.424 90.1865 270.608 116.613 276.798C101.033 260.043 88.566 240.643 79.7975 219.509C68.75 224.007 58.1765 229.59 48.2325 236.177V236.177Z" fill="#00AF91"/>
</svg>
